<svg xmlns="http://www.w3.org/2000/svg" xmlns:xlink="http://www.w3.org/1999/xlink" data-name="Layer 1" viewBox="0 0 1400 1000"><defs><linearGradient id="f" x1="764.4" x2="764.4" y1="822.41" y2="482.69" gradientUnits="userSpaceOnUse"><stop offset="0" stop-color="#fff" stop-opacity="0"/><stop offset=".01" stop-color="#fcfdfe" stop-opacity=".02"/><stop offset=".14" stop-color="#d1ddef" stop-opacity=".27"/><stop offset=".28" stop-color="#acc2e1" stop-opacity=".5"/><stop offset=".43" stop-color="#8eacd6" stop-opacity=".68"/><stop offset=".57" stop-color="#769ace" stop-opacity=".82"/><stop offset=".71" stop-color="#658ec8" stop-opacity=".92"/><stop offset=".85" stop-color="#5b86c4" stop-opacity=".98"/><stop offset="1" stop-color="#5884c3"/></linearGradient><linearGradient id="a" x1="3431.03" x2="3555.46" y1="417.6" y2="417.6" gradientTransform="matrix(-1 0 0 1 4301.04 0)" gradientUnits="userSpaceOnUse"><stop offset="0" stop-color="#4058a6"/><stop offset=".25" stop-color="#415aa8" stop-opacity=".97"/><stop offset=".49" stop-color="#4562ad" stop-opacity=".89"/><stop offset=".72" stop-color="#4c6fb5" stop-opacity=".74"/><stop offset=".96" stop-color="#5680c0" stop-opacity=".54"/><stop offset="1" stop-color="#5884c3" stop-opacity=".5"/></linearGradient><linearGradient id="g" x1="3431.03" x2="3555.46" y1="444.78" y2="444.78" xlink:href="#a"/><linearGradient id="h" x1="3431.03" x2="3555.46" y1="363.23" y2="363.23" xlink:href="#a"/><linearGradient id="i" x1="3431.03" x2="3555.46" y1="336.05" y2="336.05" xlink:href="#a"/><linearGradient id="j" x1="3431.03" x2="3555.46" y1="390.41" y2="390.41" xlink:href="#a"/><linearGradient id="b" x1="655.13" x2="700.49" y1="658.82" y2="658.82" gradientUnits="userSpaceOnUse"><stop offset="0" stop-color="#2433c4"/><stop offset=".23" stop-color="#293ac5" stop-opacity=".98"/><stop offset=".47" stop-color="#3850c9" stop-opacity=".93"/><stop offset=".72" stop-color="#5275d0" stop-opacity=".84"/><stop offset=".97" stop-color="#75a8da" stop-opacity=".71"/><stop offset="1" stop-color="#79aedb" stop-opacity=".7"/></linearGradient><linearGradient id="k" x1="714.66" x2="760.02" y1="646.09" y2="646.09" xlink:href="#b"/><linearGradient id="l" x1="772.05" x2="817.41" y1="675.37" y2="675.37" xlink:href="#b"/><linearGradient id="m" x1="828.21" x2="873.57" y1="659.38" y2="659.38" xlink:href="#b"/><linearGradient id="n" x1="-81.85" x2="67.09" y1="-1380.39" y2="-1380.39" gradientTransform="rotate(-20.18 5334.637 -2522.752)" xlink:href="#b"/><linearGradient id="c" x1="1109.66" x2="1158.85" y1="812.25" y2="812.25" gradientUnits="userSpaceOnUse"><stop offset="0" stop-color="#5884c3"/><stop offset=".15" stop-color="#5b86c4" stop-opacity=".98"/><stop offset=".29" stop-color="#658ec8" stop-opacity=".92"/><stop offset=".43" stop-color="#769ace" stop-opacity=".82"/><stop offset=".57" stop-color="#8eacd6" stop-opacity=".68"/><stop offset=".72" stop-color="#acc2e1" stop-opacity=".5"/><stop offset=".86" stop-color="#d1ddef" stop-opacity=".27"/><stop offset=".99" stop-color="#fcfdfe" stop-opacity=".02"/><stop offset="1" stop-color="#fff" stop-opacity="0"/></linearGradient><linearGradient id="o" x1="1109.68" x2="1109.68" y1="897.84" y2="816.34" gradientUnits="userSpaceOnUse"><stop offset="0" stop-color="#fff" stop-opacity=".6"/><stop offset=".02" stop-color="#f8fafd" stop-opacity=".62"/><stop offset=".26" stop-color="#b2c6e3" stop-opacity=".78"/><stop offset=".5" stop-color="#80a1d1" stop-opacity=".9"/><stop offset=".75" stop-color="#628bc7" stop-opacity=".98"/><stop offset="1" stop-color="#5884c3"/></linearGradient><linearGradient id="p" x1="5660.18" x2="5884.29" y1="365.91" y2="365.91" gradientTransform="translate(-4725.12)" xlink:href="#a"/><linearGradient id="q" x1="5676.81" x2="5768.04" y1="394.57" y2="394.57" gradientTransform="translate(-4725.12)" xlink:href="#a"/><linearGradient id="r" x1="5676.81" x2="5725.09" y1="417.67" y2="417.67" gradientTransform="translate(-4725.12)" xlink:href="#a"/><linearGradient id="s" x1="5719.31" x2="5930.43" y1="306.19" y2="306.19" gradientTransform="translate(-4725.12)" xlink:href="#c"/><linearGradient id="t" x1="5728.75" x2="5775.16" y1="339.99" y2="339.99" gradientTransform="translate(-4725.12)" xlink:href="#a"/><linearGradient id="u" x1="5737.11" x2="5766.8" y1="339.99" y2="339.99" gradientTransform="translate(-4725.12)" xlink:href="#a"/><linearGradient id="v" x1="5782.93" x2="5843.39" y1="333.82" y2="333.82" gradientTransform="translate(-4725.12)" xlink:href="#a"/><linearGradient id="d" x1="5727.75" x2="5806.79" y1="257.03" y2="257.03" gradientTransform="translate(-4725.12)" gradientUnits="userSpaceOnUse"><stop offset="0" stop-color="#5884c3" stop-opacity=".5"/><stop offset=".04" stop-color="#5680c0" stop-opacity=".54"/><stop offset=".28" stop-color="#4c6fb5" stop-opacity=".74"/><stop offset=".51" stop-color="#4562ad" stop-opacity=".89"/><stop offset=".75" stop-color="#415aa8" stop-opacity=".97"/><stop offset="1" stop-color="#4058a6"/></linearGradient><linearGradient id="w" x1="5727.75" x2="5776.03" y1="277.92" y2="277.92" xlink:href="#d"/><linearGradient id="x" x1="5813.16" x2="5843.39" y1="311.72" y2="311.72" xlink:href="#d"/><linearGradient id="y" x1="5712.81" x2="5936.93" y1="306.19" y2="306.19" gradientTransform="translate(-4725.12)" xlink:href="#a"/><linearGradient id="B" x1="427.42" x2="530.87" y1="210.7" y2="210.7" xlink:href="#c"/><linearGradient id="C" x1="427.42" x2="482.17" y1="234.21" y2="234.21" xlink:href="#c"/><radialGradient id="e" cx="5751.95" cy="339.99" r="57.95" gradientTransform="translate(-4725.12)" gradientUnits="userSpaceOnUse"><stop offset="0" stop-color="#fff"/><stop offset=".13" stop-color="#fff" stop-opacity=".98"/><stop offset=".26" stop-color="#fff" stop-opacity=".94"/><stop offset=".38" stop-color="#fff" stop-opacity=".86"/><stop offset=".5" stop-color="#fff" stop-opacity=".75"/><stop offset=".63" stop-color="#fff" stop-opacity=".61"/><stop offset=".75" stop-color="#fff" stop-opacity=".44"/><stop offset=".87" stop-color="#fff" stop-opacity=".24"/><stop offset=".99" stop-color="#fff" stop-opacity=".01"/><stop offset="1" stop-color="#fff" stop-opacity="0"/></radialGradient><radialGradient id="z" cx="5751.95" cy="339.99" r="37.71" xlink:href="#e"/><radialGradient id="A" cx="5751.95" cy="339.99" r="21.83" xlink:href="#e"/></defs><path fill="none" stroke="#a8b9df" stroke-miterlimit="10" stroke-width="4" d="M1126.49,344.52H290a6,6,0,0,0-4.24,1.76L174.44,457.61a6,6,0,0,0-1.76,4.24V619.29a6,6,0,0,0,1.76,4.24L285.77,734.86a6,6,0,0,0,4.24,1.76h836.48a6,6,0,0,0,4.24-1.76l111.33-111.33a6,6,0,0,0,1.76-4.24V461.85a6,6,0,0,0-1.76-4.24L1130.73,346.28A6,6,0,0,0,1126.49,344.52Z"/><path fill="none" stroke="#a8b9df" stroke-miterlimit="10" stroke-width="4" d="M689.53,256.82V733.3a6,6,0,0,0,1.76,4.24L802.61,848.87a6,6,0,0,0,4.25,1.75H964.3a6,6,0,0,0,4.24-1.75l111.33-111.33a6,6,0,0,0,1.75-4.24V256.82a6,6,0,0,0-1.75-4.24L968.54,141.25a6,6,0,0,0-4.24-1.76H806.86a6,6,0,0,0-4.25,1.76L691.29,252.58A6,6,0,0,0,689.53,256.82Z"/><circle cx="948.93" cy="344.52" r="8.36" fill="#a8b9df"/><circle cx="983.49" cy="344.52" r="8.36" fill="#a8b9df"/><circle cx="1018.05" cy="344.52" r="8.36" fill="#a8b9df"/><circle cx="1052.61" cy="344.52" r="8.36" fill="#a8b9df"/><circle cx="1243.82" cy="462.36" r="8.36" fill="#a8b9df"/><circle cx="1243.82" cy="496.92" r="8.36" fill="#a8b9df"/><circle cx="1243.82" cy="531.48" r="8.36" fill="#a8b9df"/><circle cx="1243.82" cy="566.04" r="8.36" fill="#a8b9df"/><path fill="#f0f3f8" d="M1101.63,404.59H935.25a6,6,0,0,1-6-5.65l-3.16-54.52a6,6,0,0,0-6-5.65H657.88a6,6,0,0,0-6,5.74l-2.33,54.34a6,6,0,0,1-6,5.74H265.15a6,6,0,0,0-4.24,1.76L149.58,517.67a6.05,6.05,0,0,0-1.76,4.25V679.36a6,6,0,0,0,1.76,4.24L260.91,794.93a6,6,0,0,0,4.24,1.75H643.56a6,6,0,0,1,6,5.75l2.33,54.34a6,6,0,0,0,6,5.74H920.11a6,6,0,0,0,6-5.65l3.16-54.52a6,6,0,0,1,6-5.66h166.38a6,6,0,0,0,4.24-1.75L1217.2,683.6a6,6,0,0,0,1.76-4.24V521.92a6,6,0,0,0-1.76-4.25L1105.87,406.35A6,6,0,0,0,1101.63,404.59Z"/><path fill="#f0f3f8" d="M575.57,275V715.15a5.49,5.49,0,0,0,1.62,3.9l102.5,102.51a5.56,5.56,0,0,0,3.91,1.62h145a5.56,5.56,0,0,0,3.91-1.62L935,719.05a5.49,5.49,0,0,0,1.62-3.9V275a5.52,5.52,0,0,0-1.62-3.91l-102.5-102.5a5.52,5.52,0,0,0-3.91-1.62h-145a5.52,5.52,0,0,0-3.91,1.62l-102.5,102.5A5.52,5.52,0,0,0,575.57,275Z"/><g><rect width="339" height="651.97" x="628.46" y="210.54" fill="#8eb8e2" rx="25"/><rect width="339" height="651.97" x="594.9" y="210.54" fill="#3e5fab" rx="25"/><rect width="291.6" height="510.8" x="618.55" y="271.17" fill="#8eb8e2"/><path fill="url(#f)" d="M910.2,442.25c-36.61,44.3-84.55,87.42-154.8,105.41-56.61,14.5-99,5.34-136.8-3.44V782H910.2Z" opacity=".47"/><path fill="#324e87" d="M714.67,210.54H814a0,0,0,0,1,0,0V223a15.54,15.54,0,0,1-15.54,15.54H730.21A15.54,15.54,0,0,1,714.67,223V210.54A0,0,0,0,1,714.67,210.54Z"/><circle cx="850.22" cy="238.54" r="8.2" fill="#324e87"/><circle cx="764.35" cy="818.23" r="21.79" fill="none" stroke="#8eb8e2" stroke-miterlimit="10" stroke-width="5"/><line x1="870.01" x2="745.58" y1="417.6" y2="417.6" fill="none" stroke="url(#a)" stroke-miterlimit="10" stroke-width="7" opacity=".47"/><line x1="870.01" x2="745.58" y1="444.78" y2="444.78" fill="none" stroke="url(#g)" stroke-miterlimit="10" stroke-width="7" opacity=".47"/><line x1="870.01" x2="745.58" y1="363.23" y2="363.23" fill="none" stroke="url(#h)" stroke-miterlimit="10" stroke-width="7" opacity=".47"/><line x1="870.01" x2="745.58" y1="336.05" y2="336.05" fill="none" stroke="url(#i)" stroke-miterlimit="10" stroke-width="7" opacity=".47"/><line x1="870.01" x2="745.58" y1="390.41" y2="390.41" fill="none" stroke="url(#j)" stroke-miterlimit="10" stroke-width="7" opacity=".47"/><line x1="951.7" x2="951.7" y1="308.63" y2="378.06" fill="none" stroke="#336297" stroke-miterlimit="10" stroke-width="7"/><rect width="45.36" height="155.29" x="655.13" y="581.18" fill="url(#b)" opacity=".47"/><rect width="45.36" height="182.98" x="714.66" y="554.6" fill="url(#k)" opacity=".47"/><rect width="45.36" height="124.41" x="772.05" y="613.17" fill="url(#l)" opacity=".47"/><rect width="45.36" height="156.4" x="828.21" y="581.18" fill="url(#m)" opacity=".47"/><circle cx="714.66" cy="392.31" r="74.45" fill="url(#n)"/><path fill="#f9bf1f" d="M714.66,392.31,640.42,398a75.07,75.07,0,0,1,0-10.71c2.78-40.74,38.59-72,79.34-69.21s72,38.59,69.22,79.33-38.59,72-79.34,69.22a74.45,74.45,0,0,1-38.67-14Z"/><path fill="#ee465e" d="M714.66,392.31l-74.26,5.4a74.48,74.48,0,0,1,45.77-74.18Z"/><polygon fill="#fff" points="823.16 271.17 662.55 781.97 618.61 781.97 618.61 677.19 746.28 271.17 823.16 271.17" opacity=".25"/><polygon fill="#fff" points="688.29 781.97 848.9 271.17 910.21 271.17 910.21 403.38 791.17 781.97 688.29 781.97" opacity=".25"/></g><g data-name="Robot\Head\Front"><rect width="19.3" height="15.95" x="421.2" y="382.63" fill="#30302f" transform="rotate(178.92 430.837 390.62)"/><rect width="46.85" height="26.09" x="450.23" y="355.67" fill="#aa3552" rx="5" transform="rotate(178.92 473.647 368.727)"/><rect width="76.02" height="76.02" x="378.32" y="306.81" fill="#c53c56" rx="7" transform="rotate(178.92 416.317 344.834)"/><rect width="76.02" height="76.02" x="401.62" y="306.38" fill="#ee465e" rx="7" transform="rotate(178.92 439.623 344.399)"/><rect width="13.13" height="9.2" x="426.34" y="333.45" fill="#30302f" rx="1" transform="rotate(88.92 432.912 338.067)"/><rect width="25.29" height="10.2" x="429.35" y="355.7" fill="#30302f" rx="1" transform="rotate(180 441.74 361.027)"/><rect width="46.85" height="26.09" x="369.95" y="357.18" fill="#d13f5b" rx="5" transform="rotate(178.92 393.366 370.235)"/><path fill="#aa3552" d="M374.7,357.53l17.91-.34a5,5,0,0,0-4.91,5.09l.31,16.09a5,5,0,0,0,5.09,4.91l-17.91.34a5,5,0,0,1-5.09-4.91l-.3-16.09A5,5,0,0,1,374.7,357.53Z"/><path fill="#d13f5b" d="M389.12,295.43l.91,48.33a4,4,0,0,0,4.07,3.92l12.75-.23a4,4,0,0,0,3.92-4.08L410.24,315a4,4,0,0,1,3.93-4.08l53.77-1a4,4,0,0,1,4.07,3.92l.53,28.34a4,4,0,0,0,4.08,3.92l12.75-.24a4,4,0,0,0,3.92-4.07l-.91-48.33a4,4,0,0,0-4.07-3.93L393,291.35A4,4,0,0,0,389.12,295.43Z"/><path fill="#aa3552" d="M414.06,296.06l70.38-1.32a3.36,3.36,0,0,1,3.43,3.3l.9,47.86-12.15.23a4,4,0,0,1-4.08-3.92L472,313.87a4,4,0,0,0-4.07-3.92l-53.77,1a4,4,0,0,0-3.92,4L410,300.3A4.17,4.17,0,0,1,414.06,296.06Z"/><rect width="19.3" height="15.95" x="430.85" y="382.45" fill="#474748" transform="rotate(178.92 440.485 390.44)"/><path fill="#fff" d="M473.43 356.82a38.21 38.21 0 011.19 4.8c.3 1.59.52 3.19.7 4.8a81.4 81.4 0 01.43 9.62v.12a1.9 1.9 0 01-1.92 1.87c-2.3 0-4.61-.16-6.92-.42-1.16-.13-2.31-.27-3.47-.5a30.41 30.41 0 01-3.47-.78 30.63 30.63 0 013.44-.91c1.15-.27 2.29-.45 3.44-.63 2.3-.34 4.61-.55 6.91-.67l-1.92 2a83.62 83.62 0 01.07-9.63c.12-1.61.28-3.21.52-4.82A40 40 0 01473.43 356.82zM468.38 334.07a34.5 34.5 0 01-1.18-4.79c-.3-1.6-.54-3.2-.71-4.8a81.4 81.4 0 01-.43-9.62l2 1.92q-8.46 0-16.92-.23c-2.83-.12-5.65-.21-8.47-.4s-5.65-.38-8.47-.69c2.81-.41 5.62-.73 8.44-1s5.63-.5 8.44-.73q8.46-.6 16.91-.86a1.92 1.92 0 012 1.83v.09a83.66 83.66 0 01-.07 9.63c-.11 1.6-.29 3.21-.53 4.82A36 36 0 01468.38 334.07z"/><rect width="13.13" height="9.2" x="457.27" y="332.87" fill="#30302f" rx="1" transform="rotate(88.92 463.842 337.49)"/></g><g data-name="Robot\Body\Front"><circle cx="535.8" cy="425.22" r="9.91" fill="#30302f"/><circle cx="561.74" cy="420.06" r="14.78" fill="#30302f"/><circle cx="584.06" cy="405.88" r="9.91" fill="#30302f"/><circle cx="323.02" cy="513.36" r="9.91" fill="#30302f"/><circle cx="318.14" cy="539.35" r="14.78" fill="#30302f"/><circle cx="322.99" cy="565.34" r="9.91" fill="#30302f"/><rect width="42.8" height="16.42" x="415.06" y="497.9" fill="#4e4f50"/><path fill="#f6be1d" d="M486.21,503.08l-7.56.92a346.25,346.25,0,0,1-84.38,0l-7.56-.92a4.34,4.34,0,0,1-3.77-3.72l-.86-6.34a346.47,346.47,0,0,1-1.86-76.64l.69-7.95a4.32,4.32,0,0,1,4-3.94l24.43-1.92a346.34,346.34,0,0,1,54.28,0L488,404.49a4.32,4.32,0,0,1,4,3.94l.69,7.95A347.08,347.08,0,0,1,490.84,493l-.86,6.34A4.35,4.35,0,0,1,486.21,503.08Z"/><path fill="#ee9e23" d="M490,499.36l.86-6.34q1.49-10.93,2.26-21.94c-14,13.89-19.48,15.2-47.19,13.89-17.75-.84-31.86-18.8-38.16-32.41-4.54-9.81-12.53-45.35-13.94-48.77l-8.92.7a4.32,4.32,0,0,0-4,3.94l-.69,7.95A346.47,346.47,0,0,0,382.08,493l.86,6.34a4.34,4.34,0,0,0,3.77,3.72l7.56.92a346.25,346.25,0,0,0,84.38,0l7.56-.92A4.35,4.35,0,0,0,490,499.36Z"/><path fill="#f6be1d" d="M453.76,409.9a54.94,54.94,0,0,1-8.94,8h0c1.07.57,29.09,14.78,66.86,15,34.76.21,86.67-11.25,136.61-67l-8.08-7.23c-37.78,42.19-80.83,63.52-128,63.4C481.89,422,459.53,412.59,453.76,409.9Z"/><circle cx="563.99" cy="425.67" r="14.78" fill="#4e4f50"/><circle cx="563.99" cy="425.67" r="8.45" fill="#30302f"/><circle cx="537.62" cy="429.74" r="9.91" fill="#4e4f50"/><circle cx="537.62" cy="429.74" r="5.01" fill="#30302f"/><circle cx="585.87" cy="410.41" r="9.91" fill="#4e4f50"/><circle cx="585.87" cy="410.41" r="5.01" fill="#30302f"/><path fill="#ee9e23" d="M678.4,362.72l-6.4-5.85a15.64,15.64,0,0,1-23.08-21.11l-6.4-5.85a24.31,24.31,0,0,0,35.88,32.81Z"/><circle cx="645.06" cy="361.57" r="9.91" fill="#4e4f50"/><circle cx="645.06" cy="361.57" r="5.01" fill="#ee9e23"/><path fill="#f8e782" d="M400 445.14h-22.1v-1c.06-9.36.49-18.72 1.28-27.83l.69-7.95a5.32 5.32 0 014.9-4.86l21.43-1.68v37.13A6.21 6.21 0 01400 445.14zm-20.09-2H400a4.21 4.21 0 004.2-4.2V404L385 405.48a3.33 3.33 0 00-3.06 3l-.69 8C380.46 425.2 380 434.17 380 443.14zM488.15 487.84h-22.1v-1c.06-9.36.49-18.73 1.28-27.83l.68-7.95a5.32 5.32 0 014.9-4.86l21.44-1.68v37.13A6.21 6.21 0 01488.15 487.84zm-20.09-2h20.09a4.21 4.21 0 004.21-4.2v-35l-19.28 1.51a3.33 3.33 0 00-3.06 3l-.69 7.95C468.57 467.9 468.15 476.86 468.06 485.84z"/><path fill="#ee9e23" d="M464.29 402.62v26.81a4.34 4.34 0 004.34 4.34h12.79a4.34 4.34 0 004.33-4.34V404.31zM462.38 482.51a4.33 4.33 0 00-4.33 4.33V505.9q10.32-.64 20.6-1.9l7.56-.92a4.35 4.35 0 003.77-3.72l.86-6.34c.47-3.5.88-7 1.25-10.51z"/><path fill="#e77b26" d="M478 482.51c-5.1 2.19-10.93 2.9-19.71 2.85a4.28 4.28 0 00-.28 1.48V505.9q10.23-.64 20.43-1.88l.17 0 7.56-.92a4.35 4.35 0 003-1.75 4.29 4.29 0 00.8-2l.86-6.34c.47-3.5.88-7 1.25-10.51zM395 465.34H379.46q.75 13.88 2.62 27.68l.86 6.34a4.34 4.34 0 003.77 3.72l7.56.92c2.4.3 4.8.53 7.2.77V471.84A6.5 6.5 0 00395 465.34z"/><path fill="#4e4f50" d="M459.53,402.29a14.32,14.32,0,0,0-14-11.22H429.17a14.31,14.31,0,0,0-13.93,11.09A348.16,348.16,0,0,1,459.53,402.29Z"/><path fill="#ee9e23" d="M378.92 459.1l-9.1-12.1c-13-25-5.38-29.56 7.95-36.85l3.14-1.72zM493.69 459.1l9.1-12.1c13-25 5.38-29.56-8-36.85l-3.14-1.72z"/><path fill="#e77b26" d="M436.46,508.74A348.12,348.12,0,0,1,394,506.15l-7.56-.92a6.53,6.53,0,0,1-5.66-5.58l-.86-6.34a349.49,349.49,0,0,1-1.87-77.11l.69-7.95a6.48,6.48,0,0,1,6-5.93l24.43-1.91a348.25,348.25,0,0,1,54.62,0l24.43,1.91a6.49,6.49,0,0,1,6,5.93l.69,7.95A350.11,350.11,0,0,1,493,493.31l-.87,6.34a6.5,6.5,0,0,1-5.65,5.58l-7.56.92A348.37,348.37,0,0,1,436.46,508.74Zm0-105.06c-9,0-18,.35-27,1.05l-24.43,1.92a2.15,2.15,0,0,0-2,2l-.69,7.95a344.57,344.57,0,0,0,1.85,76.16l.86,6.33a2.16,2.16,0,0,0,1.88,1.86l7.56.93a344.92,344.92,0,0,0,83.85,0l7.56-.93a2.18,2.18,0,0,0,1.89-1.85l.86-6.34a345.18,345.18,0,0,0,1.85-76.16l-.69-7.95a2.15,2.15,0,0,0-2-2l-24.43-1.92C454.48,404,445.47,403.68,436.46,403.68Z"/><path fill="#f6be1d" d="M367.8,442.92a54.3,54.3,0,0,1-4.12-11.29h0c-.93.78-24.55,21.49-38.84,56.46-13.14,32.18-21.84,84.62,11.3,151.74l9.72-4.8c-25.08-50.78-28.84-98.68-11.18-142.36C346.06,464.51,363.15,447.28,367.8,442.92Z"/><circle cx="312.09" cy="539.35" r="14.78" fill="#4e4f50"/><circle cx="312.09" cy="539.35" r="8.45" fill="#30302f"/><circle cx="437.49" cy="455.85" r="14.78" fill="#30302f"/><circle cx="437.49" cy="449.8" r="14.78" fill="#4e4f50"/><circle cx="437.49" cy="449.8" r="8.45" fill="#30302f"/><circle cx="318.14" cy="513.36" r="9.91" fill="#4e4f50"/><circle cx="318.14" cy="513.36" r="5.01" fill="#30302f"/><circle cx="318.11" cy="565.34" r="9.91" fill="#4e4f50"/><circle cx="318.11" cy="565.34" r="5.01" fill="#30302f"/><path fill="#ee9e23" d="M327.9,669a24.31,24.31,0,1,1,43.81-21.07l-7.82,3.76a15.63,15.63,0,1,0-28.18,13.55Z"/><circle cx="341.38" cy="638.46" r="9.91" fill="#4e4f50"/><circle cx="341.38" cy="638.46" r="5.01" fill="#ee9e23"/><circle cx="396.88" cy="470.15" r="1.87" fill="#020202"/><circle cx="468.93" cy="428.4" r="1.87" fill="#020202"/><circle cx="482.08" cy="428.4" r="1.87" fill="#020202"/><circle cx="482.08" cy="410.31" r="1.87" fill="#020202"/><circle cx="468.93" cy="408.43" r="1.87" fill="#020202"/><circle cx="462.42" cy="486.93" r="1.87" fill="#020202"/><circle cx="485.75" cy="486.84" r="1.87" fill="#020202"/><circle cx="385.27" cy="470.15" r="1.87" fill="#020202"/><circle cx="397.77" cy="498.78" r="1.87" fill="#020202"/><circle cx="462.42" cy="499.78" r="1.87" fill="#020202"/></g><g data-name="Robot\Leg\Front"><rect width="13.76" height="81.28" x="358.49" y="781.23" fill="#8ea3ca"/><rect width="13.76" height="81.28" x="488.23" y="781.23" fill="#8ea3ca"/><rect width="13.76" height="81.28" x="390.66" y="781.23" fill="#cfd7ed"/><rect width="13.76" height="81.28" x="519.67" y="781.23" fill="#cfd7ed"/><rect width="175.45" height="212.45" x="358.49" y="573.06" fill="#cfd7ed" rx="3" transform="rotate(-180 446.215 679.285)"/><path fill="#a8b9df" d="M361.49,573.06h32.27a3,3,0,0,0-3,3V782.51a3,3,0,0,0,3,3H361.49a3,3,0,0,1-3-3V576.06A3,3,0,0,1,361.49,573.06Z"/><circle cx="474.18" cy="757.27" r="8.97" fill="#30302f"/><path fill="none" stroke="#30302f" stroke-miterlimit="10" stroke-width="3" d="M484.41,732.94l-9.44-.69c-1.76-.13-3.23.81-3.24,2l-.2,38.53c0,1.16,1.28,2.17,2.92,2.29l5.63.42"/><polygon fill="#f6be1d" points="509.64 753.67 479.22 752.9 489.35 630.3 390.53 573.42 440.26 542.04 500.27 629.06 509.64 753.67"/><path fill="#4e4f50" d="M387,554.61h23.28a3,3,0,0,1,3,3v3.48a22.8,22.8,0,0,1-22.8,22.8H387a3,3,0,0,1-3-3V557.61A3,3,0,0,1,387,554.61Z"/><path fill="#797979" d="M388.46,567h-1.18a3.27,3.27,0,0,1-3.26-3.27v7.84a3.26,3.26,0,0,0,3.26,3.27h1.18A24.83,24.83,0,0,0,413.29,550v-1.18a3.22,3.22,0,0,0-.49-1.71A24.85,24.85,0,0,1,388.46,567Z"/><path fill="#4e4f50" d="M445.4,587.26c4.67,3.11,9.16,6.43,13.66,9.73s8.9,6.72,13.26,10.19,8.69,7,13,10.46,8.54,7.14,12.82,10.71l1.12.94-.08,1.5q-.58,11.49-1.32,23c-.56,7.66-1,15.32-1.67,23s-1.3,15.31-2,23-1.59,15.29-2.64,22.92c-.28-7.7-.28-15.39-.3-23.07s.11-15.37.3-23,.44-15.35.66-23,.63-15.34,1-23l1,2.44c-4.19-3.66-8.42-7.28-12.59-11s-8.33-7.4-12.38-11.23-8.13-7.62-12.14-11.5S449.21,591.38,445.4,587.26Z"/><circle cx="562.28" cy="754.7" r="8.97" fill="#30302f"/><path fill="none" stroke="#30302f" stroke-miterlimit="10" stroke-width="3" d="M570.69,729.68h-9.46c-1.76,0-3.16,1-3.07,2.28l2.61,38.44c.07,1.17,1.43,2.08,3.07,2.08h5.65"/><polygon fill="#f6be1d" points="565.8 753.67 596.22 752.9 575.42 630.3 489.82 560.99 405.51 560.99 563.3 633.6 565.8 753.67"/><path fill="#4e4f50" d="M469,554.61h3.48a22.8,22.8,0,0,1,22.8,22.8v3.48a3,3,0,0,1-3,3H469a3,3,0,0,1-3-3V557.61A3,3,0,0,1,469,554.61Z" transform="rotate(-180 480.63 569.245)"/><path fill="#797979" d="M490.82,567H492a3.27,3.27,0,0,0,3.27-3.27v7.84a3.26,3.26,0,0,1-3.27,3.27h-1.18A24.83,24.83,0,0,1,466,550v-1.18a3.23,3.23,0,0,1,.5-1.71A24.83,24.83,0,0,0,490.82,567Z"/><path fill="#ee9e23" d="M565.82,752.9v32.4h71.51v-11a7.64,7.64,0,0,0-7.45-7.62c-10.43-.28-28.67-2.44-33.66-13.81h-30.4Z"/><path fill="#30302f" d="M566,785.3a8.93,8.93,0,0,1,2.32-6.6,9.41,9.41,0,0,1,6.59-3.05,9.76,9.76,0,0,1,7,2.65,10,10,0,0,1,3.09,7h-2.34a10.05,10.05,0,0,1,2.86-7.24,10.3,10.3,0,0,1,17.64,7.24h-3a10.3,10.3,0,0,1,17.66-7.24,10.08,10.08,0,0,1,2.85,7.24h-2.34a9.92,9.92,0,0,1,3.08-7,9.81,9.81,0,0,1,7-2.66,9.42,9.42,0,0,1,6.6,3.06,8.93,8.93,0,0,1,2.32,6.6,8.89,8.89,0,0,0-2.9-6,8.39,8.39,0,0,0-6-2.17,8.09,8.09,0,0,0-5.61,2.57,8,8,0,0,0-2.13,5.61h-2.34a7.88,7.88,0,0,0-2.37-5.38,7.61,7.61,0,0,0-10.65.11,7.49,7.49,0,0,0-2.15,5.27h-3A7.43,7.43,0,0,0,598,780a7.61,7.61,0,0,0-10.65-.11A7.84,7.84,0,0,0,585,785.3h-2.34a8,8,0,0,0-2.13-5.62,8.17,8.17,0,0,0-5.62-2.57,8.46,8.46,0,0,0-6,2.17A8.93,8.93,0,0,0,566,785.3Z"/><path fill="#ee9e23" d="M479.24,752.9v32.4h71.51v-11a7.64,7.64,0,0,0-7.45-7.62c-10.43-.28-28.67-2.44-33.66-13.81h-30.4Z"/><path fill="#30302f" d="M479.42,785.3a8.93,8.93,0,0,1,2.32-6.6,9.41,9.41,0,0,1,6.59-3.05,9.76,9.76,0,0,1,7,2.65,10,10,0,0,1,3.09,7h-2.34a10.05,10.05,0,0,1,2.86-7.24,10.3,10.3,0,0,1,17.64,7.24h-3a10.29,10.29,0,0,1,17.65-7.24,10.08,10.08,0,0,1,2.85,7.24h-2.34a9.92,9.92,0,0,1,3.08-7,9.81,9.81,0,0,1,7-2.66,9.42,9.42,0,0,1,6.6,3.06,8.93,8.93,0,0,1,2.32,6.6,8.89,8.89,0,0,0-2.9-6,8.39,8.39,0,0,0-6-2.17,8.09,8.09,0,0,0-5.61,2.57,8,8,0,0,0-2.13,5.61h-2.34a7.88,7.88,0,0,0-2.37-5.38,7.61,7.61,0,0,0-10.65.11,7.49,7.49,0,0,0-2.15,5.27h-3a7.48,7.48,0,0,0-7.42-7.5,7.58,7.58,0,0,0-5.38,2.12,7.84,7.84,0,0,0-2.37,5.38h-2.34a8,8,0,0,0-2.13-5.62,8.17,8.17,0,0,0-5.62-2.57,8.46,8.46,0,0,0-6,2.17A8.93,8.93,0,0,0,479.42,785.3Z"/><circle cx="496.22" cy="630.63" r="14.78" fill="#4e4f50"/><circle cx="496.22" cy="630.63" r="8.45" fill="#ee9e23"/><path fill="#30302f" d="M482.78,559.59a192.55,192.55,0,0,1-86,.75,58.62,58.62,0,0,0-1.75-17.94,59.47,59.47,0,0,0-12-23.23,2.17,2.17,0,0,1,1.68-3.56H495a2.18,2.18,0,0,1,1.79,3.42,79.62,79.62,0,0,0-14,40.56Z"/><path fill="#f6be1d" d="M482.78,559.59a192.55,192.55,0,0,1-86,.75,58.62,58.62,0,0,0-1.75-17.94,59.47,59.47,0,0,0-12-23.23,2.17,2.17,0,0,1,1.68-3.56H495a2.18,2.18,0,0,1,1.79,3.42,79.62,79.62,0,0,0-14,40.56Z"/><path fill="#ee9e23" d="M485.52,543.14c.18-.63.38-1.24.57-1.86-7.65,4.05-16.27,4.31-34.21,3.46-16.35-.77-29.62-16.08-36.53-29.13H385c.06,2.11.14,4.23.23,6.34a58.45,58.45,0,0,1,11.56,38.39,192.55,192.55,0,0,0,86-.75A80.34,80.34,0,0,1,485.52,543.14Z"/><path fill="#545454" d="M456.67,541.38a29.24,29.24,0,0,0-34.5-1L419.81,542a25.05,25.05,0,0,1-24.26,2.4c.18.86.35,1.7.49,2.53a27.21,27.21,0,0,0,25-3.14l2.36-1.61a27.06,27.06,0,0,1,31.94.89,27.35,27.35,0,0,0,29.54,2.54c.2-.83.41-1.66.64-2.5.05-.16.1-.31.15-.48a25.2,25.2,0,0,1-29-1.28Z"/><path fill="#484748" d="M431.67 536.14a29.46 29.46 0 00-9.5 4.27L419.81 542a25.05 25.05 0 01-24.26 2.4c.18.86.35 1.7.49 2.53h0a27.21 27.21 0 0025-3.14l2.36-1.61a27.18 27.18 0 0110.52-4.33C433.15 537.33 432.41 536.75 431.67 536.14zM472.1 546.64a25.36 25.36 0 01-8.55-1.51c-1.68 0-3.45-.06-5.35-.13a27.23 27.23 0 0026.68.64h0c.2-.82.41-1.65.64-2.49.05-.16.1-.31.15-.48A25.35 25.35 0 01472.1 546.64z"/><path fill="#f8e782" d="M417.9,517.79a176.84,176.84,0,0,0,24.39,4.37c8.14,1,16.29,1.52,24.45,1.82,2,.07,4.08.14,6.12.16s4.08.08,6.12.06,4.08,0,6.12-.06l3.07-.07,1.53-.06h.19c.06,0,.16,0,.06,0a3.12,3.12,0,0,1-.31-.07,2.14,2.14,0,0,1-.71-.35,2,2,0,0,1-.57-2.52,1.8,1.8,0,0,1,.18-.25l0,0,0,.09-.1.17-.38.7-.72,1.42a35.48,35.48,0,0,0-2.47,6.14A41.22,41.22,0,0,0,483.42,542c2.35-3.57,4.27-7.26,6.49-10.38,1.11-1.56,2.3-3,3.57-4.49l1-1.11.48-.58.12-.14.06-.07.14-.19a5.9,5.9,0,0,0,.52-.92,6.22,6.22,0,0,0,.34-4.33,6.36,6.36,0,0,0-2.6-3.56,6.55,6.55,0,0,0-2.12-.91,6.17,6.17,0,0,0-1.07-.16l-.51,0-1.53-.14-3-.22c-2-.15-4.07-.26-6.11-.36s-4.07-.18-6.11-.25-4.07-.11-6.11-.14c-8.14-.12-16.29,0-24.46.59A178.54,178.54,0,0,0,417.9,517.79Z"/><path fill="#f6be1d" d="M438.18,566.83a194.45,194.45,0,0,1-41.79-4.54l-1.67-.37.1-1.7a56.58,56.58,0,0,0-13.28-39.77,4.17,4.17,0,0,1,3.22-6.84H495a4.18,4.18,0,0,1,3.44,6.55,77.67,77.67,0,0,0-13.68,39.55l-.09,1.48-1.44.34a194.54,194.54,0,0,1-43.05,5.29Zm-39.3-8.09a190.64,190.64,0,0,0,82-.76,81.25,81.25,0,0,1,2.71-15.37,82.42,82.42,0,0,1,11.56-24.72.15.15,0,0,0,0-.19.16.16,0,0,0-.16-.09H384.76a.16.16,0,0,0-.17.1.15.15,0,0,0,0,.18,61.12,61.12,0,0,1,12.39,24A60.23,60.23,0,0,1,398.88,558.74Z"/><path fill="#4e4f50" d="M522.67,596.86c4.18,2.29,8.21,4.79,12.24,7.27s8,5.1,11.9,7.73,7.81,5.33,11.66,8,7.67,5.51,11.47,8.32L571,629l.12,1.34c.64,7.15,1.26,14.29,1.81,21.45s1,14.31,1.47,21.48.81,14.33,1.08,21.51.51,14.36.5,21.57c-1.32-7.09-2.37-14.19-3.43-21.3s-2-14.23-2.84-21.35-1.69-14.26-2.45-21.39-1.45-14.28-2.11-21.42l1.19,2.13q-5.67-4.23-11.27-8.57T544,615.64c-3.65-3-7.28-6-10.84-9.16S526.06,600.21,522.67,596.86Z"/><circle cx="571.21" cy="630.63" r="14.78" fill="#4e4f50"/><circle cx="571.21" cy="630.63" r="8.45" fill="#ee9e23"/></g><g><path fill="#a4b5dd" d="M1114.1,753.15c-1,1.1-2.06,3.61-2.94,6.29l-.51-28.62a63.18,63.18,0,0,1,6.55-19L1115,710.5a58.79,58.79,0,0,0-4.49,10.41l-1.43-80.82c.81-5.07,2.55-10.91,3.89-11.59l-1.17-2.31c-1.16.59-2.12,2.18-2.89,4.1l-.4-22.25-2.59.05.21,11.62a25,25,0,0,0-3.44-6l-2,1.68s4.26,5.16,5.6,14.82l2,115.31a68.32,68.32,0,0,0-9-16.23l-2,1.61c.09.12,9,11.5,11.26,24.82l.29,16.7,2.6,0-.07-3.74c1-4.51,3.17-12.1,4.67-13.7Z"/><path fill="#c4cfe6" d="M1043.31,659.07c-.57-1.42,2.38-4.56,8.29-10.78,5.67-6,8.51-8.95,11.61-11,2.86-1.88,9.36-6,18.25-6.43,6.64-.29,4.52,2,20.53,5.18,3.77.76,7.91,1.45,10,4.77.22.36,1.74,2.85.83,5-1.13,2.63-5.07,2.67-11.41,3.94-2.47.5,1.65-.21-15.55,4.56-8.94,2.49-13.41,3.73-15.34,4.15S1045.2,663.86,1043.31,659.07Z"/><path fill="#a4b5dd" d="M1049.69,655.09a30.49,30.49,0,0,1,5.24-3c.87-.4,1.75-.79,2.63-1.13a15.6,15.6,0,0,1,2.71-.88c1.88-.41,4-.49,5.74-1.28a15.65,15.65,0,0,0,4.76-3.47c.72-.71,1.45-1.44,2.24-2.09a25.57,25.57,0,0,1,2.48-1.79,28.81,28.81,0,0,1,5.37-2.93,25.8,25.8,0,0,1,12.14-1.67l.13.48a44.44,44.44,0,0,1-5.06,3.37c-1.69,1-3.38,1.89-5.09,2.72s-3.5,1.48-5.27,2.2a49.78,49.78,0,0,1-5.51,2,22.59,22.59,0,0,0-5.42,2.55c-1.68,1.08-3.17,2.67-4.94,3.74a11.71,11.71,0,0,1-2.82,1.21,20.33,20.33,0,0,1-3,.67,15.53,15.53,0,0,1-6.24-.25Z"/><path fill="#dde6f4" d="M1099.29,733.3c1.19-.78-.09-3.4-2.28-14.1-2.57-12.55-1.89-14.23-4.35-18-2.29-3.53-5.26-5.46-11.2-9.33a94.41,94.41,0,0,0-16-8.08c-9.9-4.21-9.51-3-14.72-5.6-11.33-5.69-16-12.87-18.25-11.41-1,.63-.83,2.41.42,9.33,2,11.42,3.08,17.12,4.14,19.08,3.69,6.76,9.78,9.79,18,13.89,10.39,5.16,11.85,3,20.53,7.26C1090.56,723.56,1096.79,735,1099.29,733.3Z"/><path fill="#a4b5dd" d="M1036.87,673.85c2.61,1.8,4.91,3.71,7.22,5.6l3.43,2.82c1.15.93,2.25,1.91,3.32,2.94,2.13,2.08,4.14,4.44,6.64,6.15a30.28,30.28,0,0,0,8.17,3.9c1.44.49,2.92.91,4.33,1.4s2.82,1,4.23,1.48,2.85.93,4.36,1.51a18.94,18.94,0,0,1,4.49,2.44,25.43,25.43,0,0,1,6.47,7.39,24.22,24.22,0,0,1,3.15,9l-.46.2a83.94,83.94,0,0,0-5.84-6.83,44.25,44.25,0,0,0-6.42-5.42,28.18,28.18,0,0,0-3.48-2l-4.09-2a43.86,43.86,0,0,1-4.11-2.2c-1.34-.8-2.6-1.72-3.87-2.6a73.49,73.49,0,0,0-7.78-5c-2.68-1.48-5.69-2.57-8.35-4.24a22.58,22.58,0,0,1-3.7-2.89,34.82,34.82,0,0,1-3.24-3.41,28.77,28.77,0,0,1-4.87-8.05Z"/><path fill="#c4cfe6" d="M1113.81,757.77c-2.6-.88-.28-14,.82-20.32,1.91-10.82,2.86-16.23,6.64-21.15,5.93-7.72,14.6-10.37,18.66-11.61,7.59-2.32,8.67-.35,18.46-2.9,10-2.61,14.16-6,15.76-4.36,1.85,2-1.71,8.88-5.6,13.48s-7.75,6.48-16,11c-10.13,5.56-15.2,8.34-17.21,9.74C1119.85,742.53,1116.69,758.75,1113.81,757.77Z"/><path fill="#a4b5dd" d="M1115.84,749.67a23.79,23.79,0,0,1-.6-8.35c.07-.7.18-1.39.28-2.09s.29-1.38.46-2.06.4-1.36.64-2a20,20,0,0,1,.9-1.94,39,39,0,0,1,5.33-6.64c.92-1,1.86-2,2.83-3a37.46,37.46,0,0,1,3.1-2.92,48.24,48.24,0,0,1,6.7-4.72c2.28-1.42,4.56-2.83,6.94-4a74.55,74.55,0,0,1,7.34-3.29,52.61,52.61,0,0,1,7.88-2.4l.25.43a50.88,50.88,0,0,1-6.2,5.42,77.14,77.14,0,0,1-6.74,4.54,66.76,66.76,0,0,1-7.27,3.53c-1.24.54-2.47,1.1-3.73,1.55s-2.54.88-3.76,1.34a12.58,12.58,0,0,0-6.08,4.62c-1.51,2.15-2.07,4.81-2.73,7.24-.15.62-.34,1.23-.53,1.83s-.39,1.2-.6,1.8l-1.19,3.67a76,76,0,0,1-2.72,7.6Z"/><path fill="#dde6f4" d="M1114.41,712.43c-1-.64-2.07-2.28.62-19.49,1.89-12.09,2.84-18.14,4.36-21.57,3.72-8.42,9.18-13,20.11-22.18,5.24-4.4,18.64-15.66,21.36-13.27,2.13,1.87-3.25,11.4-4.77,14.1-5.47,9.68-8.6,9.22-11.82,16.38-3.35,7.46-.54,9.26-4.15,20.32-1.33,4.07-3,9.18-7,14.31C1127.66,708,1118.12,714.86,1114.41,712.43Z"/><path fill="#a4b5dd" d="M1119.56,703.24a35,35,0,0,1,1.31-9.29c.4-1.5.88-3,1.42-4.42a25.44,25.44,0,0,1,2-4.24c.79-1.37,1.74-2.58,2.56-3.83a27,27,0,0,0,2.2-4,25.11,25.11,0,0,0,1.4-4.3c.35-1.47.5-3,.73-4.55a17.71,17.71,0,0,1,1.3-4.82,17,17,0,0,1,1.17-2.23,19,19,0,0,1,1.55-2.1c1.13-1.3,2.22-2.37,3.3-3.44s2.17-2.09,3.28-3.1c2.25-2,4.54-4,6.92-5.86a91.32,91.32,0,0,1,7.44-5.52l.37.33a49.55,49.55,0,0,1-5,7.92,64.55,64.55,0,0,1-6.09,7c-1.1,1.08-2.25,2.13-3.44,3.1s-2.39,1.92-3.38,2.82a14.12,14.12,0,0,0-1.37,1.42c-.43.51-.85,1.08-1.28,1.63a18.92,18.92,0,0,0-2.18,3.61,79.84,79.84,0,0,0-3.24,8.64c-.47,1.47-.79,3-1.18,4.52s-.83,3.07-1.3,4.47a41,41,0,0,1-1.64,4.17c-.6,1.38-1.23,2.74-1.89,4.1a65.29,65.29,0,0,1-4.48,8.08Z"/><path fill="#dde6f4" d="M1106.76 608.93c-2.82-.95-2.51-10.14-2.29-16.59.15-4.25.61-6.4.42-11.61a73.33 73.33 0 00-.83-8.71c-1.19-7.41-3.06-10.32-4.15-14.52-2.09-8 .2-15.07 3.53-25.29 3.47-10.69 6.35-11.71 6.84-19.7.22-3.57-.06-8.16 1.66-8.71 1.11-.36 2.59 1.12 3.73 2.49 11.91 14.26 14.1 38.56 14.1 38.56.72 8 1.12 12.4-.21 18.46-1.26 5.77-2.73 6.82-6.42 18-2.87 8.68-2.4 9.31-4.36 13.48C1115.65 601.48 1109.74 609.93 1106.76 608.93zM1064.25 534.49c.88-.6 2.75.73 5.8 2.9a37.4 37.4 0 0113.48 17.83c.86 2.51.67 2.95 2.28 11 1 4.95 1.5 7.45 2.08 8.71 1.68 3.68 3.28 4.12 7 8.92 2.61 3.33 4.75 6 6.22 9.95 1 2.58.62 2.94 1.86 14.1.77 6.83 1.06 8.19.17 8.85-2.75 2-11.9-6.18-13-7.19-5.19-4.65-15-13.48-18.66-28.41-3-12.41 1.89-14.13-1.87-28.2C1067 543.23 1062.47 535.7 1064.25 534.49z"/><path fill="#a4b5dd" d="M1073.66 544.12a24 24 0 014.83 8.63 28.5 28.5 0 011.14 4.87 19.23 19.23 0 01.11 5c-.18 1.62-.47 3.12-.65 4.67a22.18 22.18 0 000 4.68 25.06 25.06 0 002.83 8.9c.69 1.4 1.52 2.75 2.24 4.18s1.39 2.78 2.12 4.1a37.43 37.43 0 002.37 3.73c.88 1.19 1.74 2.35 2.68 3.42s2 2.24 3.08 3.48 2.06 2.52 3 3.84c.48.65.92 1.33 1.34 2s.85 1.39 1.26 2.09c.82 1.41 1.59 2.84 2.27 4.33l-.4.31a83.1 83.1 0 01-7.39-6.12l-3.54-3.06a48.72 48.72 0 01-3.6-3.32 23.6 23.6 0 01-3.09-4.14 34 34 0 01-2.26-4.57 48.12 48.12 0 01-2.68-9.41c-.61-3.22-1.13-6.39-1.83-9.53-.33-1.58-.77-3.16-1.12-4.78a42.76 42.76 0 01-.77-4.85c-.15-1.55-.24-3-.36-4.49s-.31-3-.51-4.49c-.41-3-1-6-1.49-9.3zM1113.63 509.53a23.55 23.55 0 012.52 5.43 26.87 26.87 0 011.26 5.93 24.58 24.58 0 01.11 3.1c0 1-.08 2-.14 2.91-.1 1.89-.24 3.78-.5 5.69-.52 3.84-1.54 7.56-1.24 11.36s1.75 7.41 2.54 11.34a52.53 52.53 0 011 5.87 47.45 47.45 0 01.25 6 38.43 38.43 0 01-1.87 11.93c-1.13 3.67-2.34 7.27-3.55 10.93a99.82 99.82 0 01-4.12 10.9l-.49-.1a99.54 99.54 0 01.78-11.71c.21-1.94.58-3.86.94-5.78s.82-3.82 1.3-5.69 1-3.65 1.41-5.37a48.65 48.65 0 00.88-5.4c.21-1.85.33-3.71.46-5.59s.27-3.77.28-5.67a31.08 31.08 0 00-.4-5.68c-.31-1.88-.72-3.82-1-5.77a96 96 0 01-1.33-11.75 40.81 40.81 0 01.23-5.84c.09-1 .23-1.95.34-2.86s.18-1.76.24-2.68c.09-1.83.07-3.68 0-5.56s-.24-3.78-.38-5.76z"/><path fill="#dde6f4" d="M1111.92,627.78c-3-4.44,3.72-13.6,5.6-16.18a31.09,31.09,0,0,1,14.31-11.19c2.43-.88,6.25-1.28,13.89-2.08,6.73-.7,6.81-.44,12.65-1,10.31-1,15.47-1.57,19.08-2.49,2.82-.72,8.24-2.3,12.64-.42,1.14.49,1.79,1,1.87,1.66.17,1.34-2.19,2.61-5,4.15,0,0-5,2.8-10.16,5.81a44.89,44.89,0,0,0-9.53,6.84c-3.75,3.67-3.36,4.95-7,8.29a31.84,31.84,0,0,1-8.3,5.39c-5.15,2.23-9.2,1.91-15.55,1.87C1117.8,628.28,1113.87,630.7,1111.92,627.78Z"/><path fill="#a4b5dd" d="M1113.84,623.85a24.31,24.31,0,0,1,6.92-6.6A28.84,28.84,0,0,1,1125,615a21,21,0,0,1,4.57-1.48c3.16-.62,6.4-.52,9.52-.74,1.57-.11,3.17-.12,4.62-.32a17.55,17.55,0,0,0,4.26-1.28c1.38-.58,2.71-1.29,4-1.95s2.65-1.32,3.93-2,2.53-1.48,3.7-2.27,2.33-1.66,3.68-2.55a31,31,0,0,1,8.9-4,28.22,28.22,0,0,1,9.53-.92l.1.49c-2.85,1.39-5.59,2.65-8.18,4.09a69.84,69.84,0,0,0-7.33,4.7,42.46,42.46,0,0,1-4,2.6,36.85,36.85,0,0,1-4.42,2.08,33.45,33.45,0,0,1-4.56,1.53,36,36,0,0,1-4.75.83c-1.6.17-3.2.28-4.81.31a26.24,26.24,0,0,0-4.57.24c-3,.51-5.76,2-8.48,3.13-1.36.58-2.73,1.11-4.11,1.6s-2.72,1-4.09,1.62c-2.75,1.12-5.46,2.38-8.44,3.55Z"/><polygon fill="#b2c2e3" points="1150.16 862.51 1069.15 862.51 1060.47 826 1086.52 761.98 1132.8 761.98 1158.85 826 1150.16 862.51"/><polygon fill="url(#c)" points="1132.8 761.98 1109.66 761.98 1109.66 862.51 1150.16 862.51 1158.85 826 1132.8 761.98" opacity=".47"/><polygon fill="url(#o)" points="1150.43 862.51 1068.93 862.51 1109.66 823.74 1150.43 862.51"/></g><g><path fill="#e7ebf6" d="M1152.39,432.51H942.2V299.67h45.88v70.57a9.33,9.33,0,0,0,9.35,9.33l155-.34Z"/><polyline fill="none" stroke="url(#p)" stroke-miterlimit="10" stroke-width="7" points="1155.67 379.33 1155.67 435.59 938.56 435.59 938.56 296.24 987.96 296.24" opacity=".47"/><rect width="91.23" height="15.15" x="951.69" y="386.99" fill="url(#q)" opacity=".47"/><rect width="48.28" height="15.15" x="951.69" y="410.1" fill="url(#r)" opacity=".47"/><rect width="211.12" height="133.36" x="994.19" y="239.51" fill="url(#s)" opacity=".47" rx="4"/><circle cx="1026.84" cy="339.99" r="20.7" fill="#e7ebf6"/><circle cx="1026.84" cy="339.99" r="20.7" fill="none" stroke="url(#t)" stroke-miterlimit="10" stroke-width="5" opacity=".47"/><circle cx="1026.84" cy="339.99" r="12.34" fill="none" stroke="url(#u)" stroke-miterlimit="10" stroke-width="5" opacity=".47"/><polyline fill="none" stroke="url(#v)" stroke-miterlimit="10" stroke-width="4" points="1057.81 340 1071.44 340 1080.15 327.65 1118.28 327.65" opacity=".47"/><rect width="79.03" height="15.15" x="1002.63" y="249.45" fill="url(#d)" opacity=".47"/><rect width="48.28" height="15.15" x="1002.63" y="270.34" fill="url(#w)" opacity=".47"/><rect width="30.23" height="15.15" x="1088.04" y="304.15" fill="url(#x)" opacity=".47"/><rect width="62.81" height="113.29" x="1128.21" y="249.45" fill="#e7ebf6"/><rect width="30.23" height="15.15" x="1137.27" y="259.46" fill="#a8b9df"/><rect width="62.81" height="113.29" x="1128.21" y="249.45" fill="none" stroke="#a8b9df" stroke-miterlimit="10" stroke-width="4"/><rect width="8.17" height="27.97" x="1139.94" y="320.05" fill="#a8b9df"/><rect width="8.17" height="32.96" x="1150.66" y="315.26" fill="#a8b9df"/><rect width="8.17" height="22.41" x="1161" y="325.81" fill="#a8b9df"/><rect width="8.17" height="28.17" x="1171.11" y="320.05" fill="#a8b9df"/><line x1="1137.27" x2="1179.28" y1="289.36" y2="289.36" fill="none" stroke="#a8b9df" stroke-miterlimit="10" stroke-width="4"/><line x1="1137.27" x2="1179.28" y1="298.07" y2="298.07" fill="none" stroke="#a8b9df" stroke-miterlimit="10" stroke-width="4"/><rect width="217.12" height="139.36" x="991.19" y="236.51" fill="none" stroke="url(#y)" stroke-miterlimit="10" stroke-width="7" opacity=".47" rx="5.93"/><circle cx="1026.84" cy="339.99" r="57.95" fill="url(#e)" opacity=".6"/><circle cx="1026.84" cy="339.99" r="37.71" fill="url(#z)" opacity=".6"/><circle cx="1026.84" cy="339.99" r="21.83" fill="url(#A)" opacity=".6"/><circle cx="1026.84" cy="339.99" r="11.67" fill="#fff"/></g><g data-name="Tabs"><path fill="#e7ebf6" d="M495.51,255H306.93a2,2,0,0,1-2-2V141.49a2,2,0,0,1,2-2H419.54a2,2,0,0,1,1.54.73l23.43,28.4a2,2,0,0,0,1.54.73h49.46a2,2,0,0,1,2,2V253A2,2,0,0,1,495.51,255Z"/><rect width="103.45" height="13.44" x="427.42" y="203.98" fill="url(#B)" opacity=".47" rx="2"/><rect width="54.75" height="13.44" x="427.42" y="227.49" fill="url(#C)" opacity=".47" rx="2"/><path fill="none" stroke="#a8b9df" stroke-miterlimit="10" stroke-width="4" d="M369.31,238H330.22a2,2,0,0,1-2-2V206a2,2,0,0,1,2-2h50.64a2,2,0,0,1,2,2v21.2a2,2,0,0,1-.78,1.59l-11.56,8.84A2,2,0,0,1,369.31,238Z"/><rect width="44.78" height="13.44" x="328.22" y="160.32" fill="#a8b9df" rx="2"/></g></svg>